<svg width="22" height="22" viewBox="0 0 22 22" fill="none" xmlns="http://www.w3.org/2000/svg">
<path fill-rule="evenodd" clip-rule="evenodd" d="M0.915406 2.6002C0.915406 2.15335 1.09291 1.72481 1.40888 1.40884C1.72485 1.09288 2.15339 0.915367 2.60024 0.915367H19.3954C19.6168 0.915005 19.8362 0.958325 20.0409 1.04284C20.2456 1.12736 20.4315 1.25143 20.5882 1.40793C20.7449 1.56442 20.8692 1.75029 20.9539 1.95488C21.0386 2.15946 21.0822 2.37876 21.0821 2.6002V19.3954C21.0823 19.6169 21.0389 19.8362 20.9543 20.0409C20.8696 20.2456 20.7455 20.4316 20.5889 20.5882C20.4324 20.7449 20.2464 20.8691 20.0418 20.9539C19.8371 21.0386 19.6178 21.0822 19.3963 21.082H2.60024C2.37891 21.082 2.15974 21.0384 1.95527 20.9537C1.7508 20.869 1.56502 20.7448 1.40856 20.5882C1.25209 20.4317 1.12801 20.2458 1.04339 20.0413C0.958776 19.8368 0.915285 19.6176 0.915406 19.3963V2.6002ZM8.89774 8.60437H11.6285V9.9757C12.0227 9.18737 13.031 8.47787 14.5462 8.47787C17.4512 8.47787 18.1396 10.0481 18.1396 12.9292V18.266H15.1998V13.5855C15.1998 11.9447 14.8057 11.0189 13.8047 11.0189C12.4159 11.0189 11.8384 12.0171 11.8384 13.5855V18.266H8.89774V8.60437ZM3.85607 18.1405H6.79674V8.47787H3.85607V18.1395V18.1405ZM7.21749 5.32637C7.22303 5.57815 7.17823 5.82851 7.08571 6.06274C6.99319 6.29697 6.85481 6.51037 6.6787 6.6904C6.50259 6.87043 6.2923 7.01347 6.06016 7.11112C5.82802 7.20878 5.57871 7.25908 5.32686 7.25908C5.07502 7.25908 4.82571 7.20878 4.59357 7.11112C4.36143 7.01347 4.15114 6.87043 3.97503 6.6904C3.79892 6.51037 3.66054 6.29697 3.56802 6.06274C3.4755 5.82851 3.43069 5.57815 3.43624 5.32637C3.44712 4.83215 3.65109 4.36184 4.00447 4.01616C4.35784 3.67048 4.83253 3.47692 5.32686 3.47692C5.8212 3.47692 6.29589 3.67048 6.64926 4.01616C7.00264 4.36184 7.20661 4.83215 7.21749 5.32637Z" fill="#2781D5"/>
</svg>
