<svg width="139" height="38" viewBox="0 0 139 38" fill="none" xmlns="http://www.w3.org/2000/svg">
<path d="M0 35.1279H19.2528V30.2391H5.3424V0.402344H0V35.1279Z" fill="#FF4242"/>
<path d="M27.194 17.8416C27.194 10.836 32.5364 5.2416 39.3908 5.2416C46.2956 5.2416 51.638 10.836 51.638 17.8416C51.638 24.8472 46.2956 30.3912 39.3908 30.3912C32.5364 30.3912 27.194 24.8472 27.194 17.8416ZM21.8516 17.8416C21.8516 27.72 29.5124 35.6328 39.3908 35.6328C49.3196 35.6328 57.0308 27.72 57.0308 17.8416C57.0308 8.0136 49.3196 0 39.3908 0C29.5124 0 21.8516 8.0136 21.8516 17.8416Z" fill="#FF4242"/>
<path d="M94.1968 6.64274C91.0048 2.65274 85.8976 0.152344 79.886 0.152344C69.2992 0.152344 61 8.61114 61 18.9851C61 29.3059 69.2992 37.7647 79.886 37.7647C90.3664 37.7647 97.974 31.6999 97.974 17.6551L78.024 17.6551L78.024 24.7839L88.2916 24.7839C87.4936 28.1887 84.1952 29.6783 79.886 29.6783C74.3532 29.6783 69.9908 24.7307 69.9908 18.9851C69.9908 13.1331 74.3532 8.39834 79.886 8.39834C83.0248 8.39834 85.6848 9.88794 87.6 12.2287L94.1968 6.64274Z" fill="#0E51B7"/>
<path d="M101.211 18.9851C101.211 29.3059 109.51 37.7647 119.884 37.7647C130.311 37.7647 138.611 29.3059 138.611 18.9851C138.611 8.61114 130.311 0.152344 119.884 0.152344C109.51 0.152344 101.211 8.61114 101.211 18.9851ZM110.202 18.9851C110.202 13.5055 114.458 9.08994 119.884 9.08994C125.257 9.08994 129.673 13.5055 129.673 18.9851C129.673 24.4647 125.257 28.8271 119.884 28.8271C114.458 28.8271 110.202 24.4647 110.202 18.9851Z" fill="#0E51B7"/>
</svg>
